HIERARCHY
ROOT root
{
	OFFSET	0	13.1	24.9
	CHANNELS 6  Xposition Yposition Zposition Xrotation Yrotation Zrotation
	JOINT spine_1
	{
		OFFSET	0	9.99999	0
		CHANNELS 3  Xrotation Yrotation Zrotation
		JOINT spine_2
		{
			OFFSET	0	112	-10
			CHANNELS 3  Xrotation Yrotation Zrotation
			JOINT spine_3
			{
				OFFSET	0	206.5	19.3
				CHANNELS 3  Xrotation Yrotation Zrotation
				JOINT spine_4
				{
					OFFSET	0	110.4	14.6
					CHANNELS 3  Xrotation Yrotation Zrotation
					JOINT neck_1
					{
						OFFSET	0	71.8	-50.3
						CHANNELS 3  Xrotation Yrotation Zrotation
						JOINT neck_2
						{
							OFFSET	0	86.2	-25.8
							CHANNELS 3  Xrotation Yrotation Zrotation
							JOINT head_ee
							{
								OFFSET	0	179.8	-8.7
								CHANNELS 3  Xrotation Yrotation Zrotation
								End Site
								{
									OFFSET	1	0	0
								}
							}
						}
					}
					JOINT left_clavicle
					{
						OFFSET	-43.2	22.4	-70.8
						CHANNELS 3  Xrotation Yrotation Zrotation
						JOINT left_shoulder
						{
							OFFSET	-93.9	-5.79999	48.7
							CHANNELS 3  Xrotation Yrotation Zrotation
							JOINT left_elbow
							{
								OFFSET	-291.4	-30.8	15.2
								CHANNELS 3  Xrotation Yrotation Zrotation
								JOINT left_lowarm_twist
								{
									OFFSET	-110.7	-3.89999	13.6
									CHANNELS 3  Xrotation Yrotation Zrotation
									JOINT left_hand
									{
										OFFSET	-110.7	-3.89999	13.6
										CHANNELS 3  Xrotation Yrotation Zrotation
										JOINT left_ee
										{
											OFFSET	-80.8	-5.10001	12.1
											CHANNELS 3  Xrotation Yrotation Zrotation
											End Site
											{
												OFFSET	1	0	0
											}
										}
									}
								}
							}
						}
					}
					JOINT right_clavicle
					{
						OFFSET	43.2	22.4	-70.8
						CHANNELS 3  Xrotation Yrotation Zrotation
						JOINT right_shoulder
						{
							OFFSET	93.9	-5.79999	48.7
							CHANNELS 3  Xrotation Yrotation Zrotation
							JOINT right_elbow
							{
								OFFSET	291.4	-30.8	15.2
								CHANNELS 3  Xrotation Yrotation Zrotation
								JOINT right_lowarm_twist
								{
									OFFSET	110.7	-3.89999	13.6
									CHANNELS 3  Xrotation Yrotation Zrotation
									JOINT right_hand
									{
										OFFSET	110.7	-3.89999	13.6
										CHANNELS 3  Xrotation Yrotation Zrotation
										JOINT right_ee
										{
											OFFSET	80.8	-5.10001	12.1
											CHANNELS 3  Xrotation Yrotation Zrotation
											End Site
											{
												OFFSET	1	0	0
											}
										}
									}
								}
							}
						}
					}
				}
			}
		}
	}
	JOINT left_hip
	{
		OFFSET	-82.8	-127.5	0.300001
		CHANNELS 3  Xrotation Yrotation Zrotation
		JOINT left_knee
		{
			OFFSET	-28.2	-396.7	2.2
			CHANNELS 3  Xrotation Yrotation Zrotation
			JOINT left_ankle
			{
				OFFSET	-11.7	-411.3	35.4
				CHANNELS 3  Xrotation Yrotation Zrotation
				JOINT left_toes
				{
					OFFSET	0	-60	-88.6
					CHANNELS 3  Xrotation Yrotation Zrotation
					JOINT left_foot_ee
					{
						OFFSET	-22.5	-16.5	-42.2
						CHANNELS 3  Xrotation Yrotation Zrotation
						End Site
						{
							OFFSET	1	0	0
						}
					}
				}
			}
		}
	}
	JOINT right_hip
	{
		OFFSET	82.8	-127.5	0.300001
		CHANNELS 3  Xrotation Yrotation Zrotation
		JOINT right_knee
		{
			OFFSET	28.2	-396.7	2.2
			CHANNELS 3  Xrotation Yrotation Zrotation
			JOINT right_ankle
			{
				OFFSET	11.7	-411.3	35.4
				CHANNELS 3  Xrotation Yrotation Zrotation
				JOINT right_toes
				{
					OFFSET	0	-60	-88.6
					CHANNELS 3  Xrotation Yrotation Zrotation
					JOINT right_foot_ee
					{
						OFFSET	22.5	-16.5	-42.2
						CHANNELS 3  Xrotation Yrotation Zrotation
						End Site
						{
							OFFSET	1	0	0
						}
					}
				}
			}
		}
	}
}
MOTION
Frames: 13
Frame Time: 0.02
2491.7285562 767.757 -1428.50492125 24.3826800271 81.6908600148 -29.8400954773 -0.419329 0.672735 2.79548 -0.415116 0.493562 2.83258 -0.387591 -0.132136 2.87219 -0.398957 0.322942 2.85704 -10.872 15.1149 4.18044 -11.1239 25.84 8.12093 -0.0 0.0 -0.0 -6.43583 24.6679 -5.80511 -10.632 -11.8037 78.4069 0.514487 -14.2983 0.0645314 -10.6911 -0.496945 1.27136 1.25928 1.53323 9.05809 -0.0 0.0 -0.0 10.6586 24.8999 -20.4573 7.94694 37.1583 -64.8362 1.11053 28.8153 -0.285301 64.51 2.19148 7.50786 1.20498 -25.8803 -17.2127 0.0 0.0 0.0 4.32597 19.6252 -2.22753 -37.0846 -0.291783 5.5858 8.16925 -6.91977 -1.20907 -25.2757 0.0 0.0 -0.0 0.0 -0.0 19.3811 30.5818 -8.36403 -23.7952 -0.23131 -3.61806 25.4851 -23.566 3.53992 -12.3664 0.0 0.0 0.0 0.0 0.0 
2487.66727603 766.316 -1423.50277107 23.0002931931 82.1075360492 -28.3004442146 -0.39445 0.619188 2.78348 -0.390247 0.440885 2.8172 -0.36557 -0.179195 2.84584 -0.376768 0.272314 2.83844 -10.6435 15.2032 4.85771 -10.8533 25.5218 8.73475 -0.0 0.0 -0.0 -5.82889 24.6182 -4.98904 -12.0829 -11.6764 77.919 0.564065 -15.6116 0.0773263 -10.7544 -0.500588 1.2786 0.945098 3.70714 7.81747 -0.0 0.0 -0.0 10.6664 24.3798 -20.5268 9.18534 36.2922 -64.9461 1.28552 32.4879 -0.374564 65.05 2.24355 7.55352 1.41546 -23.5761 -17.8057 0.0 0.0 0.0 5.41972 18.2088 -2.29748 -34.7081 -0.164863 5.24346 8.40288 -6.87228 -1.24234 -25.2896 0.0 0.0 -0.0 0.0 -0.0 18.1913 28.7486 -8.0104 -20.8537 -0.284514 -3.16988 19.0543 -22.9187 2.7139 -12.0928 0.0 0.0 0.0 0.0 0.0 
2473.37515516 767.3 -1414.81325582 34.8792025364 86.2113516359 -40.3557775916 -0.10659 0.356482 2.79443 -0.102264 0.178015 2.81143 -0.0912209 -0.421554 2.78537 -0.102046 0.0234517 2.81696 -8.64898 14.2118 3.74305 -8.72752 24.0483 6.96765 -0.0 0.0 -0.0 -5.45639 22.6339 -5.02511 -14.8481 -13.1252 77.2486 0.746195 -20.2865 0.1335 -13.4073 -0.660372 1.57806 0.810292 6.94687 8.19907 -0.0 0.0 -0.0 10.9123 23.7524 -21.143 6.89714 34.4192 -63.2773 1.52006 36.977 -0.508291 67.9488 2.53035 7.79017 2.51884 -14.145 -22.1238 0.0 0.0 0.0 7.92223 20.795 -3.37152 -27.9097 0.118435 4.23929 10.8961 -5.99868 -1.58992 -29.1092 0.0 0.0 -0.0 0.0 -0.0 15.5677 26.8286 -5.94772 -17.7209 -0.315804 -2.69027 4.5587 -23.1281 0.682206 -12.7776 0.0 0.0 0.0 0.0 0.0 
2466.70512606 773.09 -1410.50087684 40.9295455516 88.0487490178 -45.7233032796 -0.226154 0.423215 2.42044 -0.222935 0.268385 2.44245 -0.209515 -0.259964 2.44336 -0.217824 0.129061 2.45375 -8.21229 14.4969 4.93901 -8.23468 23.6713 8.10957 -0.0 0.0 -0.0 -4.47695 21.6524 -3.8739 -15.1647 -14.2919 75.9627 0.835355 -22.4801 0.166015 -10.0264 -0.459189 1.19517 0.938325 6.40666 8.8335 -0.0 0.0 -0.0 10.9609 24.4871 -21.1811 6.4763 29.8752 -61.6745 1.60076 38.4105 -0.55764 68.5352 2.58981 7.83627 3.45729 -11.2844 -27.8554 0.0 0.0 0.0 8.6828 24.4523 -3.49073 -17.357 0.317738 2.63447 19.6188 5.2903 -2.68474 -27.6517 0.0 0.0 -0.0 0.0 -0.0 14.6161 26.7626 -5.66589 -14.5788 -0.320814 -2.20827 1.60979 -24.3509 0.244108 -12.1376 0.0 0.0 0.0 0.0 0.0 
2419.71796641 775.233 -1413.40112397 16.1097721928 86.8360019663 -19.3804092876 -0.215738 0.213359 1.55597 -0.214398 0.113928 1.56639 -0.210515 -0.223587 1.55453 -0.213887 0.0246962 1.57033 -7.53423 15.3673 9.68467 -7.32661 21.7757 12.8013 -0.0 0.0 -0.0 -1.15441 18.7986 0.464573 -13.2587 -18.0665 71.3206 0.874408 -23.4199 0.181243 -10.0382 -0.459853 1.19653 0.999732 6.26361 9.18434 -0.0 0.0 -0.0 11.315 26.9434 -21.7163 -1.79482 20.226 -59.175 1.92997 43.7083 -0.774111 70.1061 2.75139 7.95676 5.27358 -4.38506 -39.9315 0.0 0.0 0.0 5.21853 28.5805 -1.96156 -6.22508 0.205794 0.932734 19.0414 18.6394 -2.66388 -28.0556 0.0 0.0 -0.0 0.0 -0.0 13.2024 25.3511 -4.74442 -16.5002 -0.32089 -2.50305 2.53779 -26.0924 0.387548 -10.6639 0.0 0.0 0.0 0.0 0.0 
2420.11810994 775.233 -1410.92631987 18.2149631536 87.1916361388 -21.488451919 -0.215738 0.213359 1.55597 -0.214398 0.113928 1.56639 -0.210515 -0.223587 1.55453 -0.213887 0.0246962 1.57033 -7.53423 15.3673 9.68467 -7.32661 21.7757 12.8013 -0.0 0.0 -0.0 -1.15441 18.7986 0.464573 -13.2587 -18.0665 71.3206 0.874408 -23.4199 0.181243 -10.0382 -0.459853 1.19653 0.999732 6.26361 9.18434 -0.0 0.0 -0.0 11.315 26.9434 -21.7163 -1.79482 20.226 -59.175 1.92997 43.7083 -0.774111 70.1061 2.75139 7.95676 5.27358 -4.38506 -39.9315 0.0 0.0 0.0 5.21853 28.5805 -1.96156 -6.22508 0.205794 0.932734 19.0414 18.6394 -2.66388 -28.0556 0.0 0.0 -0.0 0.0 -0.0 13.2024 25.3511 -4.74442 -16.5002 -0.32089 -2.50305 2.53779 -26.0924 0.387548 -10.6639 0.0 0.0 0.0 0.0 0.0 
2420.64143991 775.233 -1407.83332376 21.7328071104 87.6294998844 -25.0098635943 -0.215738 0.213359 1.55597 -0.214398 0.113928 1.56639 -0.210515 -0.223587 1.55453 -0.213887 0.0246962 1.57033 -7.53423 15.3673 9.68467 -7.32661 21.7757 12.8013 -0.0 0.0 -0.0 -1.15441 18.7986 0.464573 -13.2587 -18.0665 71.3206 0.874408 -23.4199 0.181243 -10.0382 -0.459853 1.19653 0.999732 6.26361 9.18434 -0.0 0.0 -0.0 11.315 26.9434 -21.7163 -1.79482 20.226 -59.175 1.92997 43.7083 -0.774111 70.1061 2.75139 7.95676 5.27358 -4.38506 -39.9315 0.0 0.0 0.0 5.21853 28.5805 -1.96156 -6.22508 0.205794 0.932734 19.0414 18.6394 -2.66388 -28.0556 0.0 0.0 -0.0 0.0 -0.0 13.2024 25.3511 -4.74442 -16.5002 -0.32089 -2.50305 2.53779 -26.0924 0.387548 -10.6639 0.0 0.0 0.0 0.0 0.0 
2421.93067673 775.233 -1400.78662544 37.6220867632 88.562393896 -40.907288808 -0.215738 0.213359 1.55597 -0.214398 0.113928 1.56639 -0.210515 -0.223587 1.55453 -0.213887 0.0246962 1.57033 -7.53423 15.3673 9.68467 -7.32661 21.7757 12.8013 -0.0 0.0 -0.0 -1.15441 18.7986 0.464573 -13.2587 -18.0665 71.3206 0.874408 -23.4199 0.181243 -10.0382 -0.459853 1.19653 0.999732 6.26361 9.18434 -0.0 0.0 -0.0 11.315 26.9434 -21.7163 -1.79482 20.226 -59.175 1.92997 43.7083 -0.774111 70.1061 2.75139 7.95676 5.27358 -4.38506 -39.9315 0.0 0.0 0.0 5.21853 28.5805 -1.96156 -6.22508 0.205794 0.932734 19.0414 18.6394 -2.66388 -28.0556 0.0 0.0 -0.0 0.0 -0.0 13.2024 25.3511 -4.74442 -16.5002 -0.32089 -2.50305 2.53779 -26.0924 0.387548 -10.6639 0.0 0.0 0.0 0.0 0.0 
2422.46089942 775.233 -1398.08505757 50.2440620671 88.8585050873 -53.5323940638 -0.215738 0.213359 1.55597 -0.214398 0.113928 1.56639 -0.210515 -0.223587 1.55453 -0.213887 0.0246962 1.57033 -7.53423 15.3673 9.68467 -7.32661 21.7757 12.8013 -0.0 0.0 -0.0 -1.15441 18.7986 0.464573 -13.2587 -18.0665 71.3206 0.874408 -23.4199 0.181243 -10.0382 -0.459853 1.19653 0.999732 6.26361 9.18434 -0.0 0.0 -0.0 11.315 26.9434 -21.7163 -1.79482 20.226 -59.175 1.92997 43.7083 -0.774111 70.1061 2.75139 7.95676 5.27358 -4.38506 -39.9315 0.0 0.0 0.0 5.21853 28.5805 -1.96156 -6.22508 0.205794 0.932734 19.0414 18.6394 -2.66388 -28.0556 0.0 0.0 -0.0 0.0 -0.0 13.2024 25.3511 -4.74442 -16.5002 -0.32089 -2.50305 2.53779 -26.0924 0.387548 -10.6639 0.0 0.0 0.0 0.0 0.0 
2416.61978388 772.784 -1402.98207939 10.9739341376 86.3326445423 -14.0639100107 -0.223135 0.203431 1.35708 -0.222118 0.116672 1.36727 -0.218735 -0.17852 1.36058 -0.221316 0.038578 1.3717 -7.23902 15.6123 9.38483 -7.03561 22.3694 12.5125 -0.0 0.0 -0.0 -0.901967 19.782 0.978611 -11.5421 -17.9037 71.4582 0.914567 -24.3726 0.197511 -9.98144 -0.456668 1.19 0.924866 6.87934 8.92805 -0.0 0.0 -0.0 11.2364 26.6489 -21.5726 -1.44191 18.4962 -59.6831 1.80148 41.7419 -0.686922 70.1977 2.76091 7.96365 4.93018 -3.39237 -36.6015 0.0 0.0 0.0 5.38528 29.4403 -1.52733 -6.88979 0.221747 1.03349 20.7617 20.1877 -2.90027 -28.8648 0.0 0.0 -0.0 0.0 -0.0 12.4956 25.5422 -4.21157 -14.9303 -0.321567 -2.2622 2.8934 -28.1014 0.446776 -10.1186 0.0 0.0 0.0 0.0 0.0 
2404.11382878 774.823 -1406.54346888 27.079437706 86.2050606642 -29.8480288292 -0.175456 0.105155 1.11487 -0.174765 0.0340043 1.1193 -0.173742 -0.205368 1.10083 -0.175432 -0.0289469 1.11944 -7.11109 14.2919 8.82538 -6.92656 20.2617 11.6754 -0.0 0.0 -0.0 -0.871929 19.2243 0.946848 -10.8797 -18.4546 71.0266 1.01841 -26.7698 0.242341 -10.5578 -0.489306 1.25613 0.959448 6.2032 8.89413 -0.0 0.0 -0.0 10.7234 23.7948 -20.7122 -3.88968 17.6523 -59.6349 1.68678 39.8781 -0.611944 69.8686 2.72675 7.93883 5.11929 -3.49843 -38.241 0.0 0.0 0.0 3.36689 27.325 -0.793574 -6.56768 0.214162 0.984643 17.9225 20.0459 -2.53215 -28.4899 0.0 0.0 -0.0 0.0 -0.0 11.9132 25.273 -3.96561 -19.0507 -0.305726 -2.89405 6.06453 -25.0772 0.912711 -8.57119 0.0 0.0 0.0 0.0 0.0 
2404.91702199 774.823 -1401.96319294 32.4428281717 86.7803639737 -35.2214012867 -0.175456 0.105155 1.11487 -0.174765 0.0340043 1.1193 -0.173742 -0.205368 1.10083 -0.175432 -0.0289469 1.11944 -7.11109 14.2919 8.82538 -6.92656 20.2617 11.6754 -0.0 0.0 -0.0 -0.871929 19.2243 0.946848 -10.8797 -18.4546 71.0266 1.01841 -26.7698 0.242341 -10.5578 -0.489306 1.25613 0.959448 6.2032 8.89413 -0.0 0.0 -0.0 10.7234 23.7948 -20.7122 -3.88968 17.6523 -59.6349 1.68678 39.8781 -0.611944 69.8686 2.72675 7.93883 5.11929 -3.49843 -38.241 0.0 0.0 0.0 3.36689 27.325 -0.793574 -6.56768 0.214162 0.984643 17.9225 20.0459 -2.53215 -28.4899 0.0 0.0 -0.0 0.0 -0.0 11.9132 25.273 -3.96561 -19.0507 -0.305726 -2.89405 6.06453 -25.0772 0.912711 -8.57119 0.0 0.0 0.0 0.0 0.0 
2385.10622899 772.942 -1430.62165887 20.3661163992 81.843350399 -22.5175530477 -0.299416 0.022354 0.446178 -0.299305 -0.00608247 0.446697 -0.299296 -0.102107 0.434913 -0.299559 -0.0321398 0.44558 -11.9253 12.9853 9.99349 -11.8188 18.2125 13.1939 -0.0 0.0 -0.0 0.455154 19.5139 2.95147 -7.82978 -19.0151 69.2168 1.24487 -31.6596 0.352974 -10.033 -0.459558 1.19593 1.25438 8.96309 11.8941 -0.0 0.0 -0.0 10.6299 22.9489 -20.5796 -5.99049 15.009 -59.4916 1.19156 30.5506 -0.325433 66.4186 2.37746 7.66705 4.92639 -2.83315 -36.3445 0.0 0.0 0.0 1.45964 25.4615 -0.728356 -8.68543 0.258986 1.30652 18.6317 16.7193 -2.595 -28.3102 0.0 0.0 -0.0 0.0 -0.0 11.5083 25.3341 -3.84517 -23.8585 -0.229911 -3.62768 8.44321 -21.3847 1.24016 -10.0476 0.0 0.0 0.0 0.0 0.0 
